HIERARCHY
ROOT pelvis
{
	OFFSET 0.000000 0.000000 0.000000
	CHANNELS 6 Xposition Yposition Zposition Zrotation Xrotation Yrotation
	JOINT lfemur
	{
		OFFSET 11.446000 0.000000 0.000000
		CHANNELS 3 Zrotation Xrotation Yrotation
		JOINT ltibia
		{
			OFFSET 0.000000 -42.030400 0.000000
			CHANNELS 3 Zrotation Xrotation Yrotation
			JOINT lfoot
			{
				OFFSET 0.000000 -39.930200 0.000000
				CHANNELS 3 Zrotation Xrotation Yrotation
				JOINT ltoes
				{
					OFFSET 0.000000 0.000000 11.775800
					CHANNELS 3 Zrotation Xrotation Yrotation
					End Site
					{
					    OFFSET 0.000000 0.000000 5.000000
					}
				}
			}
		}
	}
	JOINT rfemur
	{
		OFFSET -11.446000 0.000000 0.000000
		CHANNELS 3 Zrotation Xrotation Yrotation
		JOINT rtibia
		{
			OFFSET 0.000000 -42.030400 0.000000
			CHANNELS 3 Zrotation Xrotation Yrotation
			JOINT rfoot
			{
				OFFSET 0.000000 -39.930200 0.000000
				CHANNELS 3 Zrotation Xrotation Yrotation
				JOINT rtoes
				{
					OFFSET 0.000000 0.000000 11.775800
					CHANNELS 3 Zrotation Xrotation Yrotation
					End Site
					{
					    OFFSET 0.000000 0.000000 5.000000
					}
				}
			}
		}
	}
	JOINT thorax
	{
		OFFSET 0.000000 11.255600 -5.000000
		CHANNELS 3 Zrotation Xrotation Yrotation
		JOINT head
		{
			OFFSET 0.000000 43.799300 0.000000
			CHANNELS 3 Zrotation Xrotation Yrotation
			End Site
			{
			    OFFSET 0.000000 5.000000 0.000000
			}
		}
		JOINT lclavicle
		{
			OFFSET 0.000000 39.863000 0.000000
			CHANNELS 3 Zrotation Xrotation Yrotation
			JOINT lhumerus
			{
				OFFSET 17.380600 4.958300 0.000000
				CHANNELS 3 Zrotation Xrotation Yrotation
				JOINT lradius
				{
					OFFSET 0.000000 -27.561300 0.000000
					CHANNELS 3 Zrotation Xrotation Yrotation
					JOINT lhand
					{
						OFFSET 0.000000 -26.933000 0.000000
						CHANNELS 3 Zrotation Xrotation Yrotation
						End Site
						{
						    OFFSET 0.000000 -5.000000 0.000000
						}
					}
				}
			}
		}
		JOINT rclavicle
		{
			OFFSET 0.000000 39.863000 0.000000
			CHANNELS 3 Zrotation Xrotation Yrotation
			JOINT rhumerus
			{
				OFFSET -17.380600 4.958300 0.000000
				CHANNELS 3 Zrotation Xrotation Yrotation
				JOINT rradius
				{
					OFFSET 0.000000 -27.561300 0.000000
					CHANNELS 3 Zrotation Xrotation Yrotation
					JOINT rhand
					{
						OFFSET 0.000000 -26.933000 0.000000
						CHANNELS 3 Zrotation Xrotation Yrotation
						End Site
						{
						    OFFSET 0.000000 -5.000000 0.000000
						}
					}
				}
			}
		}
	}
}
MOTION
Frames:	18
Frame Time:	0.0333333
65.172300 87.257700 4.204200 -1.963901 -3.431693 -92.565859 -8.277626 0.029505 -6.639352 -0.000000 15.486737 0.000000 0.000000 2.131126 9.701116 -0.000000 -1.338169 -0.000000 -3.447580 -3.078554 -3.895929 0.000000 21.641283 -0.000000 0.000000 -1.431501 0.933077 0.000000 -29.549293 -0.000000 -6.480269 2.093195 0.290328 20.479351 24.467207 -2.308014 2.993856 -0.000000 5.187957 84.362205 -3.036611 68.509965 -0.000001 -12.891438 -61.793031 2.958835 -0.267518 -0.000000 -0.617804 -0.000000 0.186392 -77.190787 8.324677 -61.682348 0.000001 -20.839277 39.785011 -8.593444 -0.479475 0.000000 
65.259800 87.260900 4.187400 -1.987368 -3.491809 -92.525514 -8.307089 0.004365 -6.588907 -0.000000 15.447347 -0.000000 0.000000 2.219718 9.604045 -0.000000 -1.337938 -0.000000 -3.482410 -3.165295 -3.805964 -0.000000 21.764807 -0.000000 -0.000000 -1.434336 0.831284 0.000000 -29.548911 -0.000000 -6.551548 2.070370 0.360315 20.452045 24.525661 -2.356655 2.912978 -0.000000 5.215266 84.418709 -3.033965 68.224021 0.000001 -13.048078 -61.742627 2.834890 -0.297626 -0.000000 -0.569033 0.000000 0.152648 -77.370772 8.223122 -61.680955 -0.000001 -20.777450 39.610878 -8.462174 -0.524099 -0.000000 
65.289200 87.261300 4.148500 -1.970975 -3.500237 -92.370610 -8.278891 -0.064437 -6.659984 0.000000 15.512703 -0.000000 -0.000000 2.271935 9.523792 0.000000 -1.341327 -0.000000 -3.440685 -3.153501 -3.780416 -0.000000 21.735905 -0.000000 0.000000 -1.474526 0.658411 -0.000000 -29.548883 -0.000000 -6.578943 2.050866 0.309706 20.441879 24.523755 -2.455944 2.857836 0.000000 5.276041 84.513307 -3.175459 68.514249 0.000000 -12.942066 -61.995099 2.889067 -0.402878 0.000000 -0.556963 -0.000000 0.144628 -77.438353 8.162369 -61.637833 -0.000001 -20.757994 39.590772 -9.016257 -0.336624 0.000000 
65.304800 87.267900 4.105800 -1.986744 -3.482721 -92.225047 -8.220914 -0.103398 -6.687928 -0.000000 15.596119 -0.000000 0.000000 2.273761 9.417083 -0.000000 -1.343319 -0.000000 -3.388948 -3.097873 -3.873378 -0.000000 21.683174 -0.000000 -0.000000 -1.382792 0.640723 0.000000 -29.548750 -0.000000 -6.559453 2.071767 0.322842 20.336822 24.610584 -2.370078 2.782346 0.000000 5.182228 84.538177 -3.112793 68.364626 0.000001 -12.880597 -61.959858 2.925888 -0.341569 -0.000000 -0.571428 -0.000000 0.292463 -77.419498 8.420413 -61.692958 -0.000001 -20.861452 39.502232 -8.895801 -0.376825 0.000000 
65.311500 87.270900 4.048500 -1.994654 -3.531320 -92.154642 -8.217694 -0.081894 -6.679881 0.000000 15.541851 -0.000000 -0.000000 2.325342 9.352453 -0.000000 -1.342673 -0.000000 -3.406943 -3.100511 -3.958939 -0.000000 21.729063 -0.000000 0.000000 -1.420657 0.643256 0.000000 -29.548269 -0.000000 -6.663207 2.092581 0.253757 20.209431 24.741280 -2.175883 2.684432 -0.000000 5.228234 84.581844 -3.006973 68.216663 0.000001 -12.915914 -61.728404 3.074882 -0.216268 0.000000 -0.342899 -0.000000 0.509920 -77.649803 8.597557 -61.374457 -0.000001 -20.938621 39.216910 -9.029229 -0.331971 -0.000000 
65.361000 87.274100 3.960100 -1.897343 -3.482798 -92.078534 -8.088476 -0.233156 -6.625577 -0.000000 15.594555 0.000000 0.000000 2.344621 9.197988 -0.000000 -1.344357 -0.000000 -3.261366 -3.204771 -3.854113 0.000000 21.706942 -0.000000 0.000000 -1.399684 0.445166 0.000000 -29.548299 -0.000000 -6.654101 2.021797 0.302740 20.108580 24.879944 -2.054968 2.538864 0.000000 5.025626 84.641065 -2.805978 68.568195 0.000000 -12.778613 -62.304233 3.215228 -0.425686 -0.000000 -0.326892 -0.000000 0.502716 -77.454472 8.705345 -61.030386 -0.000002 -21.199920 39.068126 -9.101216 -0.308123 -0.000000 
65.390800 87.272500 3.899400 -1.821414 -3.498698 -91.994193 -8.047235 -0.349590 -6.626528 -0.000000 15.629713 -0.000000 -0.000000 2.313401 9.103864 -0.000000 -1.345990 0.000000 -3.230831 -3.269915 -3.901238 -0.000000 21.654925 -0.000000 0.000000 -1.386910 0.441709 0.000000 -29.547866 -0.000000 -6.679552 1.989708 0.350329 20.099719 24.803457 -2.179890 2.364828 -0.000000 5.018316 84.552890 -2.746785 67.914347 0.000001 -12.864800 -61.832765 3.171527 -0.446098 -0.000000 -0.276271 0.000000 0.437043 -77.429031 8.563892 -61.325093 -0.000001 -21.093525 39.095036 -9.096148 -0.311683 -0.000000 
65.448800 87.275300 3.802700 -1.718270 -3.478701 -91.852126 -7.957401 -0.553038 -6.714367 0.000000 15.766194 0.000000 0.000000 2.314735 9.048661 -0.000000 -1.348691 0.000000 -3.112372 -3.368027 -3.834607 -0.000000 21.606686 -0.000000 0.000000 -1.327379 0.282402 -0.000000 -29.547145 -0.000000 -6.699224 2.050545 0.299648 19.995790 24.808388 -2.059118 2.087179 0.000000 4.989392 84.648545 -2.556526 67.544079 -0.000000 -12.762430 -62.052517 3.242731 -0.505887 -0.000000 -0.266146 -0.000000 0.328637 -77.202542 8.382342 -61.424130 -0.000001 -21.090745 39.198639 -9.135240 -0.298611 -0.000000 
65.494800 87.281100 3.714800 -1.622669 -3.520648 -91.689060 -7.934567 -0.697995 -6.848412 -0.000000 15.809352 -0.000000 -0.000000 2.382977 9.030644 -0.000000 -1.354704 -0.000000 -3.083811 -3.472863 -3.922203 -0.000000 21.660746 -0.000000 0.000000 -1.367209 0.184587 0.000000 -29.546325 -0.000000 -6.791798 2.206714 0.199608 19.904189 24.707530 -1.965269 1.950370 -0.000000 4.977904 84.479160 -2.426270 67.412345 0.000000 -12.844716 -60.802483 3.035699 -0.463976 -0.000000 0.106575 0.000000 0.552938 -77.433071 8.702541 -60.843874 0.000000 -21.083185 38.318587 -9.272880 -0.251063 -0.000000 
65.536200 87.286400 3.621500 -1.463238 -3.569369 -91.528633 -7.911389 -0.929325 -6.947912 -0.000000 15.873045 -0.000000 0.000000 2.502684 8.936841 -0.000000 -1.354416 -0.000000 -3.073800 -3.715284 -4.048846 -0.000000 21.816196 0.000000 -0.000000 -1.320810 0.130258 -0.000000 -29.547005 -0.000000 -6.863208 2.277533 0.143296 19.852503 24.560978 -2.017380 1.851237 -0.000000 4.849839 84.134383 -2.226047 67.643917 -0.000000 -12.822975 -61.454679 2.914566 -0.578638 0.000000 0.240242 0.000000 0.519536 -77.358108 8.673586 -60.710950 -0.000000 -20.975096 38.645561 -9.287808 -0.245497 -0.000000 
65.597200 87.295500 3.520700 -1.287379 -3.552513 -91.361563 -7.822654 -1.276009 -6.925812 -0.000000 16.111115 -0.000000 0.000000 2.479354 8.846776 -0.000000 -1.357655 0.000000 -2.961252 -3.885148 -4.030053 -0.000000 21.784948 -0.000000 0.000000 -1.263646 0.027718 -0.000000 -29.546551 -0.000000 -6.885803 2.358178 0.044776 19.716898 24.362534 -1.938034 1.632033 0.000000 4.955712 83.976335 -2.221234 67.542999 0.000001 -12.838298 -61.300792 2.785725 -0.760417 0.000000 0.314075 0.000000 0.359677 -77.186671 8.435325 -60.770220 -0.000001 -20.942042 38.360479 -9.235831 -0.263731 0.000000 
65.629300 87.302600 3.418100 -1.173602 -3.540876 -91.169641 -7.754339 -1.514875 -7.093209 -0.000000 16.309568 0.000000 0.000000 2.533547 8.808106 0.000000 -1.358906 -0.000000 -2.885027 -3.936161 -4.185251 -0.000000 21.690930 -0.000000 -0.000000 -1.238997 0.005520 0.000000 -29.545516 -0.000000 -6.895071 2.429039 -0.047958 19.628631 24.220420 -2.057658 1.458266 -0.000000 4.813440 83.677527 -2.080039 67.980875 -0.000001 -12.722532 -61.612418 3.716842 -0.810121 0.000000 0.350532 0.000000 0.618385 -76.827864 8.726800 -61.385838 -0.000000 -21.139457 37.696248 -8.968726 -0.354920 0.000000 
65.686400 87.319800 3.268300 -1.038932 -3.479633 -91.063639 -7.584057 -1.686488 -7.218890 0.000000 16.316890 0.000000 0.000000 2.548658 8.757183 -0.000000 -1.364679 0.000000 -2.716707 -4.018109 -4.292883 -0.000000 21.541103 -0.000000 -0.000000 -1.151250 -0.054505 -0.000000 -29.545127 0.000000 -6.878916 2.578458 -0.105353 19.461953 24.306294 -1.806884 1.257553 0.000000 4.652268 82.857662 -1.735262 67.845209 0.000001 -13.129834 -61.530240 5.379775 -0.910803 0.000000 0.771574 0.000000 0.671758 -76.500089 8.859531 -61.973555 0.000001 -21.975577 37.408116 -9.171749 -0.287020 0.000000 
65.744000 87.336200 3.112700 -0.781320 -3.467353 -91.008530 -7.433955 -1.961815 -7.182095 0.000000 16.273385 -0.000000 -0.000000 2.636441 8.601085 -0.000000 -1.371146 -0.000000 -2.528214 -4.217820 -4.006300 -0.000000 21.369272 -0.000000 -0.000000 -1.072711 -0.363719 0.000000 -29.544689 -0.000000 -6.888687 2.635314 -0.145770 19.371229 24.186187 -1.818134 0.498671 0.000000 4.264105 81.656867 -0.731045 65.369523 0.000000 -14.327919 -61.194064 7.682701 -1.055656 -0.000000 1.765983 0.000000 0.872348 -76.083465 9.467686 -61.256991 0.000000 -23.649503 35.516039 -10.437406 0.137369 0.000000 
65.847100 87.358900 2.949300 -0.472105 -3.478400 -90.814483 -7.293975 -2.308137 -7.172326 0.000000 16.190786 0.000000 0.000000 2.782165 8.376535 -0.000000 -1.373588 -0.000000 -2.390346 -4.493797 -4.029223 0.000000 21.219128 -0.000000 -0.000000 -0.957737 -0.520978 0.000000 -29.543709 -0.000000 -6.988544 2.859396 -0.222847 19.365138 23.968268 -1.678621 -0.694953 -0.000000 4.535768 80.016076 -0.544791 62.787146 0.000002 -15.945017 -59.163422 9.901702 -1.351432 -0.000000 3.603767 -0.000000 0.721570 -76.025204 9.886585 -59.842500 -0.000000 -25.156965 32.876093 -11.194452 0.386730 0.000000 
65.967000 87.369600 2.783700 -0.270013 -3.499819 -90.294941 -7.202408 -2.612053 -7.572004 0.000000 16.224711 -0.000000 0.000000 2.945058 8.242650 -0.000000 -1.380129 0.000000 -2.285904 -4.638734 -4.261891 0.000000 21.094888 -0.000000 -0.000000 -0.947389 -0.764688 -0.000000 -29.543371 -0.000000 -7.110948 3.295409 -0.589013 19.376340 23.888589 -1.326096 -2.109568 0.000000 4.795919 78.047701 -0.757937 61.096036 -0.000002 -16.592834 -57.280065 10.875431 -1.906590 -0.000000 5.368337 0.000000 0.322110 -75.006681 9.968367 -58.413114 0.000000 -26.438632 31.198084 -11.251206 0.405521 0.000000 
66.124900 87.377100 2.628800 -0.010052 -3.580721 -89.735421 -7.191346 -2.966065 -8.035449 0.000000 16.156502 -0.000000 0.000000 3.145770 8.139042 -0.000000 -1.387566 -0.000000 -2.246421 -4.974459 -4.446047 -0.000000 21.226508 -0.000000 -0.000000 -0.921756 -1.130906 0.000000 -29.542511 -0.000000 -7.263705 3.549863 -0.840766 19.409851 23.987768 -1.112473 -3.611250 0.000000 4.479376 75.896143 -0.659835 58.654321 -0.000000 -15.523503 -56.872496 11.432574 -2.465787 0.000000 6.924103 0.000000 -0.061023 -73.445732 9.593432 -58.536952 0.000001 -26.537439 30.097273 -9.068558 -0.334126 -0.000000 
66.326900 87.382200 2.472200 0.289888 -3.631735 -89.240594 -7.121484 -3.485788 -8.106346 -0.000000 16.261705 -0.000000 0.000000 3.335109 7.755157 -0.000000 -1.385240 -0.000000 -2.177394 -5.375014 -4.527197 -0.000000 21.319900 0.000000 0.000000 -0.874283 -1.448365 0.000000 -29.542466 0.000000 -7.301640 3.878416 -1.092862 19.343834 23.774558 -1.189768 -5.272514 0.000000 4.076226 73.248828 -0.493362 55.999851 0.000000 -14.195765 -55.569381 12.468995 -2.658820 0.000000 8.492558 0.000000 0.080650 -71.371354 9.768586 -58.335465 0.000000 -26.292011 28.855008 -8.602214 -0.490852 0.000000 
